<svg width="24" height="24" viewBox="0 0 24 24" fill="none" xmlns="http://www.w3.org/2000/svg">
<path fill-rule="evenodd" clip-rule="evenodd" d="M11.8624 2.6375V4.58382C8.8802 4.90298 6.54999 7.43451 6.54999 10.5V12.8698C6.54999 14.552 5.81304 16.1397 4.52015 17.2319C4.18957 17.515 4 17.9272 4 18.3625C4 19.1828 4.66723 19.8499 5.48744 19.8499H9.37645C9.67254 21.3032 10.9604 22.3999 12.4999 22.3999C14.0395 22.3999 15.3273 21.3032 15.6234 19.8499H19.5124C20.3328 19.8499 21 19.1828 21 18.3625C21 17.9272 20.8104 17.515 20.4713 17.2261C19.187 16.1397 18.45 14.552 18.45 12.8698V10.5C18.45 7.43451 16.1198 4.90298 13.1374 4.58382V2.6375C13.1374 2.28555 12.8518 2 12.4999 2C12.148 2 11.8624 2.28555 11.8624 2.6375ZM12.4999 5.82499C9.92192 5.82499 7.82499 7.92197 7.82499 10.5V12.8698C7.82499 14.9276 6.92321 16.8707 5.35157 18.1992C5.32169 18.2248 5.275 18.2775 5.275 18.3625C5.275 18.4779 5.37196 18.575 5.48744 18.575H19.5124C19.628 18.575 19.725 18.4779 19.725 18.3625C19.725 18.2775 19.6782 18.2248 19.6501 18.201C18.0768 16.8707 17.175 14.9276 17.175 12.8698V10.5C17.175 7.92197 15.0781 5.82499 12.4999 5.82499ZM12.4999 21.1249C13.3314 21.1249 14.0403 20.5921 14.3033 19.8499H10.6966C10.9596 20.5921 11.6686 21.1249 12.4999 21.1249Z" fill="#292929"/>
</svg>
